<?xml version="1.0" encoding="UTF-8"?>
<svg xmlns="http://www.w3.org/2000/svg" width="1135.796" height="125.094" viewBox="0 0 1135.796 125.094">
  <g id="a" data-name="Layer 1"/>
  <g id="b" data-name="Layer 2">
    <g id="c" data-name="Layer 1">
      <g>
        <path d="M16.527,93.574c-6.348,0-9.741-3.393-9.741-9.741V25.605c0-6.348,3.393-9.741,9.741-9.741h17.95c25.393,0,40.278,17.074,40.278,38.855s-14.886,38.855-40.278,38.855H16.527Zm8.865-16.855h9.084c12.478,0,21.671-6.458,21.671-22s-9.194-22-21.671-22h-9.084v44Z" fill="#fff"/>
        <path d="M83.177,21.555c0-5.582,4.487-9.96,9.96-9.96s9.96,4.378,9.96,9.96c0,5.473-4.487,9.851-9.96,9.851s-9.96-4.378-9.96-9.851Zm.875,22.657c0-6.02,4.597-9.084,9.084-9.084,4.597,0,9.084,3.064,9.084,9.084v41.153c0,6.02-4.488,9.085-9.084,9.085-4.488,0-9.084-3.065-9.084-9.085V44.212Z" fill="#fff"/>
        <path d="M114.477,87.445c-2.189-2.299-3.065-4.598-3.065-6.677,0-4.487,4.05-7.881,8.647-7.881,2.626,0,5.363,1.095,7.662,3.612,2.08,2.408,4.815,3.94,8.865,3.94s7.114-1.313,7.114-3.722c0-7.661-32.726-2.299-32.726-23.204,0-12.149,11.054-18.826,24.079-18.826,8.318,0,17.622,2.736,21.453,6.348,2.189,2.08,3.174,4.378,3.174,6.458,0,3.831-3.283,7.114-7.771,7.114-2.298,0-5.035-.875-7.662-3.064-2.189-1.751-6.02-3.174-9.413-3.174-3.174,0-6.239,1.095-6.239,3.502,0,7.881,33.382,1.861,33.382,23.532,0,12.587-11.164,19.264-25.611,19.264-9.084,0-17.622-2.627-21.89-7.224Z" fill="#fff"/>
        <path d="M198.421,94.778c-14.667,0-31.084-8.318-31.084-29.99,0-21.78,16.308-29.88,30.975-29.88,4.816,0,9.413,.876,13.244,2.408,3.831,1.532,5.363,4.378,5.363,7.114,0,4.05-3.283,7.99-7.99,7.99-.766,0-1.532-.109-2.408-.328-1.751-.438-3.831-.766-5.91-.766-7.114,0-15.104,3.174-15.104,13.572,0,9.193,7.443,13.353,15.104,13.353,1.97,0,4.05-.219,5.91-.766,.876-.22,1.642-.329,2.408-.329,4.707,0,7.88,3.94,7.88,7.99,0,2.846-1.532,5.691-5.253,7.224-3.831,1.532-8.318,2.408-13.134,2.408Z" fill="#fff"/>
        <path d="M222.826,64.788c0-17.512,12.915-29.989,31.193-29.989,18.388,0,31.413,12.478,31.413,29.989s-13.024,29.881-31.413,29.881c-18.278,0-31.193-12.368-31.193-29.881Zm44.984-.109c0-7.99-5.691-13.572-13.791-13.572-7.88,0-13.572,5.582-13.572,13.572s5.691,13.572,13.572,13.572c8.1,0,13.791-5.582,13.791-13.572Z" fill="#fff"/>
        <path d="M303.049,86.241l-15.214-38.527c-.547-1.313-.766-2.518-.766-3.722,0-5.253,4.816-8.756,9.632-8.756,3.502,0,6.786,1.751,8.209,6.02,6.567,20.139,9.194,28.676,10.397,34.477,.767-6.348,3.065-14.229,9.413-34.258,1.313-4.269,4.707-6.129,8.209-6.129,4.706,0,9.741,3.502,9.741,8.646,0,1.095-.219,2.189-.656,3.284l-14.667,38.746c-1.861,4.925-6.567,8.428-12.149,8.428-5.253,0-10.288-3.394-12.149-8.209Z" fill="#fff"/>
        <path d="M403.631,62.381c0,5.144-3.612,7.88-9.084,7.88h-32.069c.657,5.363,6.02,9.413,12.696,9.413,4.269,0,7.662-1.423,10.179-4.159,1.86-1.97,3.94-2.846,5.91-2.846,4.159,0,7.88,3.612,7.88,7.662,0,1.751-.766,3.611-2.408,5.362-5.582,5.691-13.134,8.976-21.671,8.976-18.06,0-30.865-11.931-30.865-29.661,0-17.403,12.368-30.209,29.88-30.209,14.995,0,26.925,8.318,29.442,25.831,.109,.547,.109,1.203,.109,1.751Zm-41.263-4.05h23.532c-.656-5.473-5.472-8.975-11.82-8.975-6.458,0-11.383,3.393-11.711,8.975Z" fill="#fff"/>
        <path d="M441.167,35.784c5.035,0,7.771,3.393,7.771,7.114,0,4.049-2.955,8.318-9.741,8.975-6.02,.547-9.194,3.722-9.194,9.851v23.642c0,6.02-4.488,9.085-9.084,9.085-4.488,0-9.084-3.065-9.084-9.085V44.212c0-6.02,4.597-9.084,9.084-9.084,4.05,0,8.099,2.408,8.865,7.114,2.08-3.174,5.035-5.582,9.522-6.348,.657-.109,1.313-.109,1.861-.109Z" fill="#fff"/>
        <path d="M488.444,93.574c-6.348,0-9.741-3.393-9.741-9.741V25.605c0-6.348,3.393-9.741,9.741-9.741h17.95c25.393,0,40.277,17.074,40.277,38.855s-14.885,38.855-40.277,38.855h-17.95Zm8.865-16.855h9.085c12.478,0,21.671-6.458,21.671-22s-9.193-22-21.671-22h-9.085v44Z" fill="#fff"/>
        <path d="M613.759,44.321v40.935c0,6.02-4.597,9.085-9.193,9.085-4.269,0-8.537-2.627-9.085-7.771-3.502,5.254-8.975,8.209-16.746,8.209-12.039,0-23.312-7.771-23.312-25.283v-24.846c0-6.348,4.597-9.522,9.193-9.522s9.194,3.174,9.194,9.522v21.891c0,10.179,5.582,12.696,10.616,12.696,6.13,0,10.945-3.722,10.945-12.806v-22.109c0-6.129,4.597-9.084,9.194-9.084s9.193,2.955,9.193,9.084Z" fill="#fff"/>
        <path d="M683.037,60.082v24.846c0,6.348-4.598,9.522-9.194,9.522s-9.194-3.175-9.194-9.522v-21.891c0-10.179-5.582-12.696-10.616-12.696-6.13,0-10.945,3.722-10.945,12.806v22.109c0,6.02-4.597,9.085-9.194,9.085s-9.193-3.065-9.193-9.085V44.321c0-6.129,4.597-9.084,9.193-9.084,4.27,0,8.538,2.517,9.085,7.771,3.502-5.254,8.975-8.209,16.746-8.209,12.039,0,23.313,7.771,23.313,25.283Z" fill="#fff"/>
        <path d="M754.723,19.695V85.365c0,6.02-4.488,9.085-9.085,9.085-4.487,0-9.084-3.065-9.084-9.085v-.219c-2.518,6.02-9.741,9.522-18.498,9.522-17.512,0-27.362-13.9-27.362-30.1,0-16.965,10.507-29.771,28.348-29.771,6.13,0,13.244,2.408,17.513,7.771V19.695c0-6.02,4.597-9.084,9.084-9.084,4.597,0,9.085,3.064,9.085,9.084Zm-18.278,45.093c0-7.989-5.691-13.571-13.572-13.571-8.1,0-13.791,5.582-13.791,13.571s5.691,13.572,13.791,13.572c7.881,0,13.572-5.582,13.572-13.572Z" fill="#fff"/>
        <path d="M762.925,64.788c0-17.512,12.915-29.989,31.193-29.989,18.388,0,31.413,12.478,31.413,29.989s-13.025,29.881-31.413,29.881c-18.278,0-31.193-12.368-31.193-29.881Zm44.984-.109c0-7.99-5.691-13.572-13.791-13.572-7.88,0-13.571,5.582-13.571,13.572s5.691,13.572,13.571,13.572c8.1,0,13.791-5.582,13.791-13.572Z" fill="#fff"/>
        <path d="M892.073,60.082v24.846c0,6.348-4.598,9.522-9.194,9.522s-9.194-3.175-9.194-9.522v-21.891c0-10.179-5.582-12.696-10.616-12.696-6.13,0-10.945,3.722-10.945,12.806v22.109c0,6.02-4.597,9.085-9.194,9.085s-9.193-3.065-9.193-9.085V44.321c0-6.129,4.597-9.084,9.193-9.084,4.27,0,8.538,2.517,9.085,7.771,3.502-5.254,8.975-8.209,16.746-8.209,12.04,0,23.313,7.771,23.313,25.283Z" fill="#fff"/>
        <path d="M901.589,21.555c0-5.582,4.487-9.96,9.96-9.96s9.96,4.378,9.96,9.96c0,5.473-4.487,9.851-9.96,9.851s-9.96-4.378-9.96-9.851Zm.876,22.657c0-6.02,4.597-9.084,9.084-9.084,4.598,0,9.085,3.064,9.085,9.084v41.153c0,6.02-4.487,9.085-9.085,9.085-4.487,0-9.084-3.065-9.084-9.085V44.212Z" fill="#fff"/>
        <path d="M993.088,44.321v40.935c0,6.02-4.597,9.085-9.194,9.085s-9.193-3.065-9.193-9.085v-.109c-2.518,6.02-9.741,9.522-18.498,9.522-17.512,0-27.362-13.9-27.362-30.1,0-16.965,10.507-29.771,28.348-29.771,6.239,0,13.354,2.518,17.622,7.99,.766-5.145,4.925-7.552,9.084-7.552,4.598,0,9.194,2.955,9.194,9.084Zm-18.497,20.467c0-7.989-5.691-13.571-13.572-13.571-8.1,0-13.791,5.582-13.791,13.571s5.691,13.572,13.791,13.572c7.881,0,13.572-5.582,13.572-13.572Z" fill="#fff"/>
        <path d="M1062.365,60.082v24.846c0,6.348-4.598,9.522-9.194,9.522s-9.194-3.175-9.194-9.522v-21.891c0-10.179-5.582-12.696-10.616-12.696-6.13,0-10.945,3.722-10.945,12.806v22.109c0,6.02-4.597,9.085-9.194,9.085s-9.193-3.065-9.193-9.085V44.321c0-6.129,4.597-9.084,9.193-9.084,4.27,0,8.538,2.517,9.085,7.771,3.502-5.254,8.975-8.209,16.746-8.209,12.039,0,23.313,7.771,23.313,25.283Z" fill="#fff"/>
        <path d="M1074.398,93.574h54.288c3.831,0,7.114,3.174,7.114,7.114s-3.283,7.114-7.114,7.114h-54.288c-3.831,0-7.114-3.174-7.114-7.114s3.283-7.114,7.114-7.114Z" fill="#fff"/>
      </g>
    </g>
  </g>
</svg>